<?xml version="1.0" encoding="UTF-8" standalone="no"?>
<svg
   xmlns:dc="http://purl.org/dc/elements/1.1/"
   xmlns:cc="http://creativecommons.org/ns#"
   xmlns:rdf="http://www.w3.org/1999/02/22-rdf-syntax-ns#"
   xmlns:svg="http://www.w3.org/2000/svg"
   xmlns="http://www.w3.org/2000/svg"
   xmlns:sodipodi="http://sodipodi.sourceforge.net/DTD/sodipodi-0.dtd"
   xmlns:inkscape="http://www.inkscape.org/namespaces/inkscape"
   version="1.1"
   id="Layer_1"
   x="0px"
   y="0px"
   viewBox="0 0 766.56274 299.87363"
   xml:space="preserve"
   sodipodi:docname="Logo-01-github.svg"
   width="766.56274"
   height="299.87363"
   inkscape:version="1.0.2-2 (e86c870879, 2021-01-15)"><metadata
   id="metadata91"><rdf:RDF><cc:Work
       rdf:about=""><dc:format>image/svg+xml</dc:format><dc:type
         rdf:resource="http://purl.org/dc/dcmitype/StillImage" /></cc:Work></rdf:RDF></metadata><defs
   id="defs89" /><sodipodi:namedview
   pagecolor="#ffffff"
   bordercolor="#666666"
   borderopacity="1"
   objecttolerance="10"
   gridtolerance="10"
   guidetolerance="10"
   inkscape:pageopacity="0"
   inkscape:pageshadow="2"
   inkscape:window-width="1920"
   inkscape:window-height="1027"
   id="namedview87"
   showgrid="false"
   inkscape:zoom="0.86"
   inkscape:cx="436.46423"
   inkscape:cy="117.45054"
   inkscape:window-x="-8"
   inkscape:window-y="-8"
   inkscape:window-maximized="1"
   inkscape:current-layer="g84"
   inkscape:document-rotation="0" />
<style
   type="text/css"
   id="style2">
	.st0{fill:#FFFFFF;}
	.st1{fill:#666666;}
	.st2{fill:url(#SVGID_1_);}
	.st3{fill:url(#SVGID_2_);}
	.st4{fill:#00A4FF;}
	.st5{fill:url(#SVGID_3_);}
	.st6{fill:url(#SVGID_4_);}
	.st7{fill:url(#SVGID_5_);}
	.st8{opacity:0.18;fill:#666666;}
	.st9{fill:url(#SVGID_6_);}
	.st10{fill:url(#SVGID_7_);}
	.st11{fill:url(#SVGID_8_);}
	.st12{opacity:0.15;fill:#666666;}
	.st13{fill:url(#SVGID_9_);}
	.st14{fill:url(#SVGID_10_);}
	.st15{fill:url(#SVGID_11_);}
	.st16{fill:url(#SVGID_12_);}
	.st17{fill:url(#SVGID_13_);}
	.st18{fill:url(#SVGID_14_);}
</style>
<g
   id="g84"
   transform="translate(-105.6465,-324.12931)">
	<path
   class="st1"
   d="m 460.04512,466.34748 h 12.55575 c 3.36862,0 6.32892,-1.22494 8.77881,-3.57277 2.44991,-2.4499 3.67486,-5.4102 3.67486,-8.88089 0,-3.4707 -1.22495,-6.431 -3.67486,-8.8809 -2.44989,-2.44991 -5.41019,-3.67486 -8.77881,-3.67486 h -18.78259 v 37.4631 h 6.22684 z m 0,-18.78258 h 12.55575 c 1.73535,0 3.16446,0.61247 4.38941,1.83743 1.22495,1.22495 1.83742,2.65406 1.83742,4.38941 0,1.73534 -0.61247,3.16445 -1.83742,4.3894 -1.22495,1.22496 -2.65406,1.83743 -4.38941,1.83743 h -12.55575 z"
   id="path4"
   style="stroke-width:1.02079" />
	<path
   class="st1"
   d="m 540.07527,478.80116 -18.68051,-37.4631 -18.6805,37.4631 h 6.94138 l 3.16446,-6.22684 h 17.2514 l 3.16446,6.22684 z m -24.19279,-12.45368 5.51228,-11.02456 5.51228,11.02456 z"
   id="path6"
   style="stroke-width:1.02079" />
	<polygon
   class="st1"
   points="457.8,659.5 457.8,659.4 457.8,622.8 451.7,622.8 451.7,644.7 427.3,622.8 427.3,659.4 433.4,659.4 433.4,637.5 "
   id="polygon8"
   transform="matrix(1.0207928,0,0,1.0207928,132.26854,-194.4117)" />
	<polygon
   class="st1"
   points="497.9,659.5 504,659.5 504,628.9 516.2,628.9 516.2,622.8 485.6,622.8 485.6,628.9 497.9,628.9 "
   id="polygon10"
   transform="matrix(1.0207928,0,0,1.0207928,132.26854,-194.4117)" />
	<polygon
   class="st1"
   points="568.4,638.1 550,638.1 550,622.8 544,622.8 544,659.5 550,659.5 550,644.2 568.4,644.2 568.4,659.5 574.5,659.5 574.5,622.8 568.4,622.8 "
   id="polygon12"
   transform="matrix(1.0207928,0,0,1.0207928,132.26854,-194.4117)" />
	<polygon
   class="st1"
   points="602.2,659.5 626.7,659.5 626.7,653.4 608.3,653.4 608.3,644.2 626.7,644.2 626.7,638.1 608.3,638.1 608.3,628.9 626.7,628.9 626.7,622.8 602.2,622.8 "
   id="polygon14"
   transform="matrix(1.0207928,0,0,1.0207928,132.26854,-194.4117)" />
	<path
   class="st1"
   d="m 806.50219,466.34748 h 10.61625 l 7.24763,12.45368 h 7.14552 l -7.758,-13.47447 c 2.24572,-0.91871 4.08315,-2.34782 5.51226,-4.49149 1.4291,-2.14366 2.24574,-4.49149 2.24574,-7.04346 0,-3.36862 -1.22495,-6.32892 -3.67485,-8.77882 -2.44988,-2.44991 -5.41018,-3.67486 -8.77879,-3.67486 h -18.68051 v 37.4631 h 6.22684 v -12.45368 z m 0,-18.78258 h 12.55576 c 1.73534,0 3.16446,0.61247 4.3894,1.83743 1.22496,1.22495 1.83743,2.65406 1.83743,4.38941 0,1.73534 -0.61247,3.16445 -1.83743,4.3894 -1.22494,1.22496 -2.65406,1.83743 -4.3894,1.83743 l -12.55576,-0.10208 z"
   id="path16"
   style="stroke-width:1.02079" />
	<g
   id="g82"
   transform="matrix(1.0207928,0,0,1.0207928,-238.54915,-11.618566)">
		<path
   class="st1"
   d="m 469.2,590.3 c 8.8,1.9 17.7,2.9 26.9,2.9 17.1,0 33.6,-3.3 49.2,-9.9 10,-4.2 19.3,-9.7 27.8,-16.2 -3.6,-1.9 -8.2,-3.4 -12.7,-4.5 -18.4,12.4 -40.5,19.6 -64.3,19.6 -9.4,0 -18.6,-1.1 -27.3,-3.3 6.1,-14.1 13.7,-23.8 22.2,-30.2 22.9,12.9 36.9,2.5 36.9,2.5 l 23.7,-30.1 -5.8,20.6 c 7.9,2.5 15,5.9 20.4,9.1 l -14.3,2.4 23.1,4.2 0.6,-2.2 c 4.2,-13.9 20,-11.7 20.1,-11.7 -1.2,-0.2 -3.5,1.5 -4.6,2.1 -1.6,0.9 -3.2,2 -4.6,3.5 -3.3,3.6 -3.5,8.6 -1.2,13.1 2.8,5.6 7.2,9.5 11.7,12.6 2.5,1.7 5,3.3 7.6,5 1.4,0.9 2.8,1.8 4.2,2.7 0.8,0.5 3.6,1.6 4,2.5 l -8.9,-21.9 26.4,32.5 c 0,0 -4.1,-36.7 -23,-68.9 1.9,-3.5 3.6,-7.1 5.2,-10.8 6.6,-15.6 9.9,-32.1 9.9,-49.2 0,-17.1 -3.3,-33.6 -9.9,-49.2 -6.4,-15 -15.5,-28.6 -27.1,-40.2 -11.6,-11.6 -25.1,-20.7 -40.2,-27.1 -15.6,-6.6 -32.1,-9.9 -49.2,-9.9 -17.1,0 -33.6,3.3 -49.2,9.9 -15,6.4 -28.6,15.5 -40.2,27.1 -11.6,11.6 -20.7,25.1 -27.1,40.2 -6.6,15.6 -9.9,32.1 -9.9,49.2 0,12.6 1.8,25 5.5,36.9 v 0 0 c 1.3,4.1 2.7,8.2 4.4,12.3 6.4,15 15.5,28.6 27.1,40.2 6.3,6.3 13.3,11.9 20.7,16.8 0.4,-1.5 0.9,-3 1.4,-4.4 0,0 0,0 0.1,0.1 13.5,-35.1 43,-53.4 51.3,-58 -7.4,10.1 -13.1,21.3 -17.2,31.3 -7.4,16.9 -9.7,30.1 -9.7,30.1 -9.1,0.7 -17.1,8.8 -22.2,15.7 1.6,0.5 3.2,1.2 4.9,1.9 5.9,2 15.5,4.2 18.3,-1.7 0,0 0,0.1 0.1,0.1 -0.3,2.4 -1.5,16.1 9.9,26.7 0,0.1 6.9,-11.5 5,-24.4 z m 53.7,-58.6 c -0.3,0.6 -0.7,1.2 -1.1,1.7 -1.6,2.2 -3.2,3.7 -3.2,3.7 -2.1,0.2 -3.7,-0.3 -5,-1 -2.1,-1.3 -3.1,-3.1 -3.1,-3.1 2,-0.7 5.5,-2.6 8.5,-4.4 3,-1.8 5.6,-3.3 5.6,-3.1 0.1,2.2 -0.7,4.4 -1.7,6.2 z m 15.5,-0.2 c -0.2,0.5 -0.4,0.7 -0.4,0.7 l -3.4,-0.5 -1.2,-0.2 -2,-0.3 c 1.6,0.3 7.6,-8.3 7.6,-8.3 0.1,0.2 0.1,0.4 0.1,0.5 1,3.7 -0.1,6.8 -0.7,8.1 z M 496,351.5 c 63.6,0 115.3,51.7 115.3,115.3 0,17.7 -4,34.4 -11.1,49.4 -8.5,-11.7 -19.3,-22 -33,-28.7 1.7,-3.4 3,-7.1 3.3,-10.8 0,0 5.7,-12.3 2.2,-21.1 0,0 -15,-14.1 -20.3,-15.9 l 0.9,-14.1 c 0,0 -13.7,-6.6 -18.9,-11.9 0,0 10.6,-18.9 1.3,-21.1 0,0 -4.8,-3.1 -24.7,9.3 0,0 -23.8,-8.4 -44.9,-0.4 0,0 -20.8,-21.5 -33.9,-16.3 -7.2,2.9 -16.2,13.6 -18.9,47.1 -13.1,5.5 -24,16.8 -32.6,28.7 C 384,400 434.5,351.5 496,351.5 Z M 534,482 c 0.2,1.7 -0.3,3.5 -1.2,5.4 -2.6,0.3 -5.2,0.7 -7.5,1.2 -0.2,-4.2 -0.8,-7.9 -0.8,-7.9 z m 29.7,-2.4 c 0,1.8 -0.6,3.8 -1.4,5.7 -0.1,0.3 -0.3,0.6 -0.4,0.9 -0.6,1.2 -1.3,2.3 -1.9,3.4 -0.2,-0.1 -0.3,-0.1 -0.5,-0.2 -1.2,-0.4 -2.4,-0.8 -3.6,-1 0,-0.2 0,-0.4 0,-0.6 -0.1,-1.8 -0.2,-3.4 -0.3,-4.8 0,-0.5 -0.1,-0.9 -0.1,-1.3 -0.1,-1.2 -0.3,-2 -0.3,-2 h 8.5 z m -70.9,31.8 c 2,-1.9 4.2,-3.6 6.6,-5.3 8.4,-5.8 18.9,-10.1 32.1,-11.4 17.9,-1.7 32.4,3.8 43.7,12 -11.7,-2.3 -20,0.3 -20,0.3 23,0.6 35.3,14.1 38.1,17.6 10.4,13.5 15.1,26.5 15.1,26.5 0,0 -45.1,-62.3 -103.8,-27.2 3.9,-5.7 7.8,-9.7 11.4,-12.6 8.2,-6.7 14.5,-7.1 14.5,-7.1 -24.4,0.7 -43.5,32.9 -43.5,32.9 v 0 c -6.2,5.6 -12.4,12.4 -18.8,20.4 -0.1,0.1 4.1,-27.4 24.6,-46.1 z"
   id="path18" />
		<path
   class="st0"
   d="m 524.5,480.7 c 0,0 0.6,3.7 0.8,7.9 2.3,-0.5 4.9,-0.9 7.5,-1.2 0.8,-1.8 1.3,-3.7 1.2,-5.4 z"
   id="path20" />
		<path
   class="st0"
   d="m 513.6,536 c 1.3,0.8 2.9,1.3 5,1 0,0 1.7,-1.4 3.2,-3.7 0.4,-0.5 0.7,-1.1 1.1,-1.7 1,-1.9 1.8,-4 1.6,-6.3 0,-0.2 -2.6,1.3 -5.6,3.1 -3,1.8 -6.5,3.7 -8.5,4.4 0.1,0.1 1.1,2 3.2,3.2 z"
   id="path22" />
		<path
   class="st0"
   d="m 539.1,523 c 0,0 -6,8.6 -7.6,8.3 l 2,0.3 1.2,0.2 3.4,0.5 c 0,0 0.2,-0.3 0.4,-0.7 0.6,-1.3 1.8,-4.4 0.9,-8 -0.2,-0.3 -0.3,-0.4 -0.3,-0.6 z"
   id="path24" />
		<path
   class="st0"
   d="m 555.4,481.6 c 0,0.4 0.1,0.8 0.1,1.3 0.1,1.4 0.3,3.1 0.3,4.8 0,0.2 0,0.4 0,0.6 1.2,0.3 2.4,0.6 3.6,1 0.2,0.1 0.3,0.1 0.5,0.2 0.7,-1.1 1.4,-2.2 1.9,-3.4 0.1,-0.3 0.3,-0.6 0.4,-0.9 0.8,-1.9 1.4,-3.8 1.4,-5.7 H 555 c 0.2,0.1 0.3,0.9 0.4,2.1 z"
   id="path26" />
		<linearGradient
   id="SVGID_1_"
   gradientUnits="userSpaceOnUse"
   x1="563.82471"
   y1="477.84531"
   x2="496.23929"
   y2="562.67908">
			<stop
   offset="0"
   style="stop-color:#CBFF00"
   id="stop28" />
			<stop
   offset="1"
   style="stop-color:#ADDA1A"
   id="stop30" />
		</linearGradient>
		<path
   class="st2"
   d="m 506.3,539.2 c -3.9,1.9 -7.2,3.9 -9.5,5.4 1.7,0.6 18.9,6.6 28.9,-1.4 -0.1,0 -14.9,1 -19.4,-4 z"
   id="path33"
   style="fill:url(#SVGID_1_)" />
		<linearGradient
   id="SVGID_2_"
   gradientUnits="userSpaceOnUse"
   x1="501.18149"
   y1="427.93729"
   x2="433.59549"
   y2="512.77173">
			<stop
   offset="0"
   style="stop-color:#CBFF00"
   id="stop35" />
			<stop
   offset="1"
   style="stop-color:#ADDA1A"
   id="stop37" />
		</linearGradient>
		<path
   class="st3"
   d="m 439.3,530.6 v -26.8 c 0,0 -2.8,-2.9 -5.1,-7.8 -3.2,-7.3 -4.3,-18.8 9.5,-31.2 0,0 -3.1,35.2 32.1,24.7 0,0 0,-8.5 20.2,-14.9 -0.4,0.1 -1,0.2 -1.7,0.4 -1.4,0.4 -3.4,0.9 -5.5,1.5 -4.1,1.3 -8.6,3.1 -10.1,3.7 -2.8,1.1 -4.8,1.3 -6.9,2.8 2,-1.6 2.7,-3.5 5.1,-5.6 0.6,-0.6 1.9,-1.7 3.7,-2.9 1.7,-1.2 3.9,-2.5 6.1,-3.5 2.2,-1 4.4,-1.8 6,-2.2 1.7,-0.5 2.8,-0.6 2.8,-0.6 0,0 1.1,-0.2 2.8,-0.4 1.7,-0.2 4.1,-0.3 6.6,0 2.5,0.3 5.1,1 7.1,1.9 2,0.9 3.5,2 4.2,2.5 0.7,0.5 1.2,1 1.7,1.5 0.4,0.5 0.7,0.9 1,1.3 4.4,1.5 9.1,2.1 13.8,1.8 l 17,-1 c 4.4,-0.3 7.7,-4.1 7.3,-8.5 l -0.3,-3.5 c -4.2,-9 -17.6,-10.1 -17.6,-10.1 5.7,-4.4 11.5,-3.9 15.8,-2.4 -2,-3.6 -8.1,-13.2 -13.8,-13.2 0,0 5.3,-8.8 5.3,-8.8 -12.4,-10 -27.3,-17 -42.7,-20.8 -7.3,-1.8 -14.6,-3 -22.1,-2.8 -2.3,0.1 -24.6,4 -24.1,4.7 -33.3,-39.6 -33,27.8 -33,27.8 -10,5.1 -17.8,11.3 -23.9,17.9 -2.8,3 -5.2,6.1 -7.4,9.2 -5.3,7.6 -8.7,15.1 -10.8,21 8.5,38.1 56.9,44.3 56.9,44.3 z m 79.5,-94.2 c 0,0 3,1.7 4.7,1.4 0.3,-0.1 0.6,-0.2 0.8,-0.4 1.2,-1.5 -1.7,-8.4 -4.6,-9.5 0,0 8.3,1.9 9.4,10.6 v 2.8 l 2.5,2.5 c 0,0 -10.6,14.8 -37.7,4.2 0,0 11.1,-7.1 -2,-13.4 -0.1,0 11.3,-17.8 26.9,1.8 z m -79.3,-31.3 c 3.3,-1.8 9.5,10.1 9.5,10.1 l -9.5,14.3 c -7.3,-9.2 0,-24.4 0,-24.4 z"
   id="path40"
   style="fill:url(#SVGID_2_)" />
		<linearGradient
   id="SVGID_3_"
   gradientUnits="userSpaceOnUse"
   x1="506.4303"
   y1="432.11899"
   x2="438.84439"
   y2="516.95343">
			<stop
   offset="0"
   style="stop-color:#CBFF00"
   id="stop42" />
			<stop
   offset="1"
   style="stop-color:#ADDA1A"
   id="stop44" />
		</linearGradient>
		<path
   class="st5"
   d="m 475.8,489.5 c -35.2,10.5 -32.1,-24.7 -32.1,-24.7 -2.5,7.1 -4.4,16.2 -1.6,22.8 3.9,8.9 9,16.8 35,16.4 0,0 1.9,1.7 4.5,4.5 2.1,-2.7 4.3,-5.3 6.7,-7.8 -1.7,-2 -3.5,-3.6 -5.4,-4.7 0,0 -0.8,-15.5 13.2,-21.5 -20.3,6.6 -20.3,15 -20.3,15 z"
   id="path47"
   style="fill:url(#SVGID_3_)" />
		<path
   class="st8"
   d="m 475.8,489.5 c -35.2,10.5 -32.1,-24.7 -32.1,-24.7 -2.5,7.1 -4.4,16.2 -1.6,22.8 3.9,8.9 9,16.8 35,16.4 0,0 1.9,1.7 4.5,4.5 2.1,-2.7 4.3,-5.3 6.7,-7.8 -1.7,-2 -3.5,-3.6 -5.4,-4.7 0,0 -0.8,-15.5 13.2,-21.5 -20.3,6.6 -20.3,15 -20.3,15 z"
   id="path49" />
		<linearGradient
   id="SVGID_4_"
   gradientUnits="userSpaceOnUse"
   x1="486.67401"
   y1="416.37949"
   x2="419.0881"
   y2="501.2139">
			<stop
   offset="0"
   style="stop-color:#CBFF00"
   id="stop51" />
			<stop
   offset="1"
   style="stop-color:#ADDA1A"
   id="stop53" />
		</linearGradient>
		<path
   class="st6"
   d="m 384.1,494.4 c 0.2,0.6 0.3,1.3 0.5,1.9 0.7,2.6 1.4,5.1 2.3,7.6 7.1,20.9 20.1,39.2 36.9,52.8 1,-2.3 4.5,-8.4 7.3,-13.2 0,0.1 0.1,0.1 0.1,0.2 0.8,-1.6 1.7,-3.2 2.6,-4.7 0.3,-0.5 0.6,-1 0.9,-1.4 1.5,-2.4 3.1,-4.8 4.7,-6.9 0,0 -48.4,-6.2 -57,-44.5 0.4,2.1 0.8,4.2 1.2,6.3 0.1,0.5 0.3,1.2 0.5,1.9 z"
   id="path56"
   style="fill:url(#SVGID_4_)" />
		<path
   class="st8"
   d="m 384.1,494.4 c 0.2,0.6 0.3,1.3 0.5,1.9 0.7,2.6 1.4,5.1 2.3,7.6 7.1,20.9 20.1,39.2 36.9,52.8 1,-2.3 4.5,-8.4 7.3,-13.2 0,0.1 0.1,0.1 0.1,0.2 0.8,-1.6 1.7,-3.2 2.6,-4.7 0.3,-0.5 0.6,-1 0.9,-1.4 1.5,-2.4 3.1,-4.8 4.7,-6.9 0,0 -48.4,-6.2 -57,-44.5 0.4,2.1 0.8,4.2 1.2,6.3 0.1,0.5 0.3,1.2 0.5,1.9 z"
   id="path58" />
		<linearGradient
   id="SVGID_5_"
   gradientUnits="userSpaceOnUse"
   x1="513.07538"
   y1="437.41299"
   x2="445.4895"
   y2="522.24738">
			<stop
   offset="0"
   style="stop-color:#CBFF00"
   id="stop60" />
			<stop
   offset="1"
   style="stop-color:#ADDA1A"
   id="stop62" />
		</linearGradient>
		<path
   class="st7"
   d="m 493.8,448.1 c 27.1,10.6 37.7,-4.2 37.7,-4.2 0,0 -28.7,8.7 -32.2,-5.5 -0.2,-1.3 -0.3,-2.7 -0.3,-4.2 0,0 -1.8,-2.8 -7.2,0.6 13.1,6.1 2,13.3 2,13.3 z"
   id="path65"
   style="fill:url(#SVGID_5_)" />
		<path
   class="st8"
   d="m 493.8,448.1 c 27.1,10.6 37.7,-4.2 37.7,-4.2 0,0 -28.7,8.7 -32.2,-5.5 -0.2,-1.3 -0.3,-2.7 -0.3,-4.2 0,0 -1.8,-2.8 -7.2,0.6 13.1,6.1 2,13.3 2,13.3 z"
   id="path67" />
		<linearGradient
   id="SVGID_6_"
   gradientUnits="userSpaceOnUse"
   x1="454.39899"
   y1="390.6666"
   x2="386.81299"
   y2="475.5011">
			<stop
   offset="0"
   style="stop-color:#CBFF00"
   id="stop69" />
			<stop
   offset="1"
   style="stop-color:#ADDA1A"
   id="stop71" />
		</linearGradient>
		<path
   class="st9"
   d="m 457.4,410.2 c -3.9,-6.5 -11.2,-17.8 -19.9,-16.9 -7.4,0.8 -9.9,8.9 -11.3,15 -2.2,9.6 -2.2,19.8 -1.8,29.6 -0.1,0.1 -0.3,-67.3 33,-27.7 z"
   id="path74"
   style="fill:url(#SVGID_6_)" />
		<path
   class="st8"
   d="m 457.4,410.2 c -3.9,-6.5 -11.2,-17.8 -19.9,-16.9 -7.4,0.8 -9.9,8.9 -11.3,15 -2.2,9.6 -2.2,19.8 -1.8,29.6 -0.1,0.1 -0.3,-67.3 33,-27.7 z"
   id="path76" />
		<path
   class="st4"
   d="m 555.2,507 c 0,0 8.3,-2.6 20,-0.3 -11.3,-8.1 -25.7,-13.6 -43.7,-12 -13.2,1.2 -23.7,5.5 -32.1,11.4 -2.4,1.7 -4.6,3.4 -6.6,5.3 -20.5,18.7 -24.6,46.2 -24.6,46.2 6.3,-8.1 12.6,-14.8 18.8,-20.4 v 0 c 0,0 19.1,-32.2 43.5,-32.9 0,0 -6.3,0.4 -14.5,7.1 -3.5,2.9 -7.5,6.9 -11.4,12.6 58.8,-35.1 103.8,27.2 103.8,27.2 0,0 -4.7,-13 -15.1,-26.5 -2.8,-3.6 -15.2,-17.1 -38.1,-17.7 z"
   id="path78" />
		<path
   class="st12"
   d="m 515.9,511.3 c -3.5,2.9 -7.5,6.9 -11.4,12.6 58.8,-35.1 103.8,27.2 103.8,27.2 0,0 -23.4,-53.4 -92.4,-39.8 z"
   id="path80" />
	</g>
</g>
</svg>
